Input #0, mov,mp4,m4a,3gp,3g2,mj2, from '/home/hbattu/projects/huberman-gpt/huberman-audio/mp3/tmps5hee2jy.mp4':
  Metadata:
    major_brand     : dash
    minor_version   : 0
    compatible_brands: iso6mp41
    creation_time   : 2022-06-15T05:31:54.000000Z
  Duration: 02:18:00.77, start: 0.000000, bitrate: 129 kb/s
    Stream #0:0(und): Audio: aac (LC) (mp4a / 0x6134706D), 44100 Hz, stereo, fltp, 0 kb/s (default)
    Metadata:
      creation_time   : 2022-06-15T05:31:54.000000Z
      handler_name    : ISO Media file produced by Google Inc.
Stream mapping:
  Stream #0:0 -> #0:0 (aac (native) -> mp3 (libmp3lame))
Press [q] to stop, [?] for help
[graph_0_in_0_0 @ 0x562d04aa3940] tb:1/44100 samplefmt:fltp samplerate:44100 chlayout:0x3
Output #0, mp3, to '../huberman-audio/mp3/hFL6qRIJZ_Y.mp3':
  Metadata:
    major_brand     : dash
    minor_version   : 0
    compatible_brands: iso6mp41
    TSSE            : Lavf58.29.100
    Stream #0:0(und): Audio: mp3 (libmp3lame), 44100 Hz, stereo, fltp, delay 1105 (default)
    Metadata:
      creation_time   : 2022-06-15T05:31:54.000000Z
      handler_name    : ISO Media file produced by Google Inc.
      encoder         : Lavc58.54.100 libmp3lame
No more output streams to write to, finishing.
size=  129388kB time=02:18:00.79 bitrate= 128.0kbits/s speed=87.3x    
[AVIOContext @ 0x562d04991900] Statistics: 0 seeks, 190 writeouts
video:0kB audio:129388kB subtitle:0kB other streams:0kB global headers:0kB muxing overhead: 0.000261%
Input file #0 (/home/hbattu/projects/huberman-gpt/huberman-audio/mp3/tmps5hee2jy.mp4):
  Input stream #0:0 (audio): 356623 packets read (132492318 bytes); 356623 frames decoded (365181952 samples); 
  Total: 356623 packets (132492318 bytes) demuxed
Output file #0 (../huberman-audio/mp3/hFL6qRIJZ_Y.mp3):
  Output stream #0:0 (audio): 316999 frames encoded (365181952 samples); 317000 packets muxed (132493061 bytes); 
  Total: 317000 packets (132493061 bytes) muxed
[AVIOContext @ 0x562d049beb00] Statistics: 2 seeks, 507 writeouts
[AVIOContext @ 0x562d0499a880] Statistics: 134015754 bytes read, 0 seeks
